<svg width="28" height="28" viewBox="0 0 28 28" fill="none" xmlns="http://www.w3.org/2000/svg">
<rect width="28" height="28" rx="14" fill="#FFC1D8"/>
<path d="M6.5 16.25C5.90326 16.25 5.33097 16.0129 4.90901 15.591C4.48705 15.169 4.25 14.5967 4.25 14C4.25 13.4033 4.48705 12.831 4.90901 12.409C5.33097 11.9871 5.90326 11.75 6.5 11.75C7.09674 11.75 7.66903 11.9871 8.09099 12.409C8.51295 12.831 8.75 13.4033 8.75 14C8.75 14.5967 8.51295 15.169 8.09099 15.591C7.66903 16.0129 7.09674 16.25 6.5 16.25ZM14 16.25C13.4033 16.25 12.831 16.0129 12.409 15.591C11.9871 15.169 11.75 14.5967 11.75 14C11.75 13.4033 11.9871 12.831 12.409 12.409C12.831 11.9871 13.4033 11.75 14 11.75C14.5967 11.75 15.169 11.9871 15.591 12.409C16.0129 12.831 16.25 13.4033 16.25 14C16.25 14.5967 16.0129 15.169 15.591 15.591C15.169 16.0129 14.5967 16.25 14 16.25ZM21.5 16.25C20.9033 16.25 20.331 16.0129 19.909 15.591C19.4871 15.169 19.25 14.5967 19.25 14C19.25 13.4033 19.4871 12.831 19.909 12.409C20.331 11.9871 20.9033 11.75 21.5 11.75C22.0967 11.75 22.669 11.9871 23.091 12.409C23.5129 12.831 23.75 13.4033 23.75 14C23.75 14.5967 23.5129 15.169 23.091 15.591C22.669 16.0129 22.0967 16.25 21.5 16.25Z" fill="#FF005C"/>
</svg>
